# xmcd CD database file
#
# Track frame offsets:
#	150
#	12757
#	27017
#	38122
#	55666
#	71605
#	86293
#	96892
#	112286
#	125863
#	141533
#	154339
#
# Disc length: 2227 seconds
#
# Revision: 0
# Processed by: cddbd v1.5.2PL0 Copyright (c) Steve Scherf et al.
# Submitted via: CDex 1.70beta2
#
DISCID=a408b10c
DTITLE=Stan Kenton - Artistry In Bossa Nova -  Artistry In Bossa Nova
DYEAR=1963
DGENRE=Jazz
TTITLE0=Artistry In Rhythm (Stan Kenton)
TTITLE1=Opus In Chartreuse (Gene Roland)
TTITLE2=Interlude (Bob Russell-Pete Rugolo)
TTITLE3=Kentonova (Stan Kenton)
TTITLE4=Eager Beaver (Stan Kenton)
TTITLE5=Concerto To End All Concertos (Stan Kenton)
TTITLE6=Brasilia (Stan Kenton)
TTITLE7=Painted Rhythm (Stan Kenton)
TTITLE8=Opus In Pastels (Stan Kenton)
TTITLE9=Jump For Joe (Stan Kenton)
TTITLE10=Loco-Nova (Stan Kenton)
TTITLE11=Artistry In Bossa Nova (Pete Rugolo)
EXTD=YEAR: 1963
EXTT0=
EXTT1=
EXTT2=
EXTT3=
EXTT4=
EXTT5=
EXTT6=
EXTT7=
EXTT8=
EXTT9=
EXTT10=
EXTT11=
PLAYORDER=
